<svg width="45" height="45" viewBox="0 0 45 45" fill="none" xmlns="http://www.w3.org/2000/svg">
<path opacity="0.45" d="M22.5 0C18.0499 0 13.6998 1.3196 9.99968 3.79193C6.29957 6.26426 3.41569 9.77828 1.71272 13.8896C0.0097489 18.001 -0.435826 22.525 0.432341 26.8895C1.30051 31.2541 3.44342 35.2632 6.59011 38.4099C9.73679 41.5566 13.7459 43.6995 18.1105 44.5677C22.475 45.4358 26.999 44.9902 31.1104 43.2873C35.2217 41.5843 38.7357 38.7004 41.2081 35.0003C43.6804 31.3002 45 26.9501 45 22.5C44.9937 16.5346 42.6211 10.8153 38.4029 6.59705C34.1847 2.37885 28.4654 0.00629961 22.5 0ZM31.1538 24.2308H18.0238L21.9938 28.1985C22.1546 28.3594 22.2821 28.5503 22.3691 28.7604C22.4562 28.9705 22.501 29.1957 22.501 29.4231C22.501 29.6505 22.4562 29.8757 22.3691 30.0858C22.2821 30.2959 22.1546 30.4868 21.9938 30.6476C21.8329 30.8084 21.642 30.936 21.4319 31.023C21.2218 31.11 20.9966 31.1548 20.7692 31.1548C20.5418 31.1548 20.3166 31.11 20.1065 31.023C19.8964 30.936 19.7055 30.8084 19.5447 30.6476L12.6216 23.7245C12.4607 23.5638 12.3331 23.3729 12.246 23.1628C12.1589 22.9527 12.114 22.7274 12.114 22.5C12.114 22.2725 12.1589 22.0473 12.246 21.8372C12.3331 21.6271 12.4607 21.4362 12.6216 21.2755L19.5447 14.3524C19.8695 14.0276 20.31 13.8452 20.7692 13.8452C21.2285 13.8452 21.669 14.0276 21.9938 14.3524C22.3185 14.6772 22.501 15.1176 22.501 15.5769C22.501 16.0362 22.3185 16.4767 21.9938 16.8014L18.0238 20.7692H31.1538C31.6129 20.7692 32.0531 20.9516 32.3777 21.2762C32.7023 21.6007 32.8846 22.041 32.8846 22.5C32.8846 22.959 32.7023 23.3993 32.3777 23.7238C32.0531 24.0484 31.6129 24.2308 31.1538 24.2308Z" fill="#6D6B67"/>
</svg>
