<svg width="300" height="420" viewBox="0 0 300 420" fill="none" xmlns="http://www.w3.org/2000/svg" xmlns:xlink="http://www.w3.org/1999/xlink">
<path d="M3 382V405C3 411.627 8.37258 417 15 417H50V420H15C6.84503 420 0.210006 413.492 0.00488281 405.387L0 405V382H3ZM300 405C300 413.155 293.492 419.79 285.387 419.995L285 420H250V417H285C291.627 417 297 411.627 297 405V382H300V405ZM285.387 0.00488281C293.492 0.210007 300 6.84503 300 15V32H297V15C297 8.37258 291.627 3 285 3H250V0H285L285.387 0.00488281ZM50 3H15C8.37258 3 3 8.37259 3 15V32H0V15C0 6.71573 6.71573 1.20798e-07 15 0H50V3Z"/>
<path d="M3 382V405C3 411.627 8.37258 417 15 417H50V420H15C6.84503 420 0.210006 413.492 0.00488281 405.387L0 405V382H3ZM300 405C300 413.155 293.492 419.79 285.387 419.995L285 420H250V417H285C291.627 417 297 411.627 297 405V382H300V405ZM285.387 0.00488281C293.492 0.210007 300 6.84503 300 15V32H297V15C297 8.37258 291.627 3 285 3H250V0H285L285.387 0.00488281ZM50 3H15C8.37258 3 3 8.37259 3 15V32H0V15C0 6.71573 6.71573 1.20798e-07 15 0H50V3Z" fill="black"/>
</svg>
