<svg width="25" height="25" viewBox="0 0 25 25" fill="none" xmlns="http://www.w3.org/2000/svg">
<g clip-path="url(#clip0_67_11)">
<path d="M11.7188 7.8125C11.7188 8.58508 11.4897 9.34032 11.0604 9.9827C10.6312 10.6251 10.0211 11.1258 9.30736 11.4214C8.59359 11.7171 7.80817 11.7944 7.05043 11.6437C6.29269 11.493 5.59666 11.1209 5.05037 10.5746C4.50407 10.0283 4.13203 9.33231 3.98131 8.57457C3.83059 7.81683 3.90794 7.03142 4.2036 6.31764C4.49925 5.60387 4.99993 4.9938 5.64231 4.56457C6.28468 4.13535 7.03992 3.90625 7.8125 3.90625C8.8485 3.90625 9.84207 4.3178 10.5746 5.05037C11.3072 5.78293 11.7188 6.7765 11.7188 7.8125ZM17.1875 11.7188C17.9601 11.7188 18.7153 11.4897 19.3577 11.0604C20.0001 10.6312 20.5008 10.0211 20.7964 9.30736C21.0921 8.59359 21.1694 7.80817 21.0187 7.05043C20.868 6.29269 20.4959 5.59666 19.9496 5.05037C19.4033 4.50407 18.7073 4.13203 17.9496 3.98131C17.1918 3.83059 16.4064 3.90794 15.6926 4.2036C14.9789 4.49925 14.3688 4.99993 13.9396 5.64231C13.5103 6.28468 13.2813 7.03992 13.2813 7.8125C13.2813 8.8485 13.6928 9.84207 14.4254 10.5746C15.1579 11.3072 16.1515 11.7188 17.1875 11.7188ZM7.8125 13.2813C7.03992 13.2813 6.28468 13.5103 5.64231 13.9396C4.99993 14.3688 4.49925 14.9789 4.2036 15.6926C3.90794 16.4064 3.83059 17.1918 3.98131 17.9496C4.13203 18.7073 4.50407 19.4033 5.05037 19.9496C5.59666 20.4959 6.29269 20.868 7.05043 21.0187C7.80817 21.1694 8.59359 21.0921 9.30736 20.7964C10.0211 20.5008 10.6312 20.0001 11.0604 19.3577C11.4897 18.7153 11.7188 17.9601 11.7188 17.1875C11.7188 16.1515 11.3072 15.1579 10.5746 14.4254C9.84207 13.6928 8.8485 13.2813 7.8125 13.2813ZM17.1875 13.2813C16.4149 13.2813 15.6597 13.5103 15.0173 13.9396C14.3749 14.3688 13.8743 14.9789 13.5786 15.6926C13.2829 16.4064 13.2056 17.1918 13.3563 17.9496C13.507 18.7073 13.8791 19.4033 14.4254 19.9496C14.9717 20.4959 15.6677 20.868 16.4254 21.0187C17.1832 21.1694 17.9686 21.0921 18.6824 20.7964C19.3961 20.5008 20.0062 20.0001 20.4354 19.3577C20.8647 18.7153 21.0938 17.9601 21.0938 17.1875C21.0938 16.1515 20.6822 15.1579 19.9496 14.4254C19.2171 13.6928 18.2235 13.2813 17.1875 13.2813Z" fill="white"/>
</g>
<defs>
<clipPath id="clip0_67_11">
<rect width="25" height="25" fill="white"/>
</clipPath>
</defs>
</svg>
