<svg width="20" height="20" viewBox="0 0 20 20" fill="currentColor" xmlns="http://www.w3.org/2000/svg">
<g clip-path="url(#clip0_58_10)">
<path d="M10 9.375C9.32013 9.375 8.65552 9.1734 8.09023 8.79568C7.52494 8.41796 7.08434 7.8811 6.82417 7.25298C6.56399 6.62486 6.49592 5.93369 6.62855 5.26688C6.76119 4.60007 7.08858 3.98757 7.56932 3.50682C8.05007 3.02608 8.66257 2.69869 9.32938 2.56605C9.99619 2.43342 10.6874 2.50149 11.3155 2.76167C11.9436 3.02184 12.4805 3.46243 12.8582 4.02773C13.2359 4.59302 13.4375 5.25763 13.4375 5.9375C13.4365 6.84887 13.074 7.72261 12.4295 8.36704C11.7851 9.01147 10.9114 9.37397 10 9.375ZM14.6875 10C14.0076 10 13.343 10.2016 12.7777 10.5793C12.2124 10.957 11.7718 11.4939 11.5117 12.122C11.2515 12.7501 11.1834 13.4413 11.3161 14.1081C11.4487 14.7749 11.7761 15.3874 12.2568 15.8682C12.7376 16.3489 13.3501 16.6763 14.0169 16.809C14.6837 16.9416 15.3749 16.8735 16.003 16.6133C16.6311 16.3532 17.168 15.9126 17.5457 15.3473C17.9234 14.782 18.125 14.1174 18.125 13.4375C18.124 12.5261 17.7615 11.6524 17.117 11.008C16.4726 10.3635 15.5989 10.001 14.6875 10ZM5.3125 10C4.63263 10 3.96802 10.2016 3.40273 10.5793C2.83743 10.957 2.39684 11.4939 2.13667 12.122C1.87649 12.7501 1.80842 13.4413 1.94105 14.1081C2.07369 14.7749 2.40108 15.3874 2.88182 15.8682C3.36257 16.3489 3.97507 16.6763 4.64188 16.809C5.30869 16.9416 5.99986 16.8735 6.62798 16.6133C7.2561 16.3532 7.79296 15.9126 8.17068 15.3473C8.5484 14.782 8.75 14.1174 8.75 13.4375C8.74897 12.5261 8.38647 11.6524 7.74204 11.008C7.09761 10.3635 6.22387 10.001 5.3125 10Z" fill="white"/>
</g>
<defs>
<clipPath id="clip0_58_10">
<rect width="20" height="20" fill="white"/>
</clipPath>
</defs>
</svg>
