<svg width="40" height="40" viewBox="0 0 40 40" fill="none" xmlns="http://www.w3.org/2000/svg">
<path d="M33.75 6.25H11.25C10.587 6.25 9.95107 6.51339 9.48223 6.98223C9.01339 7.45107 8.75 8.08696 8.75 8.75V11.25H6.25C5.58696 11.25 4.95107 11.5134 4.48223 11.9822C4.01339 12.4511 3.75 13.087 3.75 13.75V31.25C3.75 31.913 4.01339 32.5489 4.48223 33.0178C4.95107 33.4866 5.58696 33.75 6.25 33.75H28.75C29.413 33.75 30.0489 33.4866 30.5178 33.0178C30.9866 32.5489 31.25 31.913 31.25 31.25V28.75H33.75C34.413 28.75 35.0489 28.4866 35.5178 28.0178C35.9866 27.5489 36.25 26.913 36.25 26.25V8.75C36.25 8.08696 35.9866 7.45107 35.5178 6.98223C35.0489 6.51339 34.413 6.25 33.75 6.25ZM26.875 11.25C27.2458 11.25 27.6084 11.36 27.9167 11.566C28.225 11.772 28.4654 12.0649 28.6073 12.4075C28.7492 12.7501 28.7863 13.1271 28.714 13.4908C28.6416 13.8545 28.463 14.1886 28.2008 14.4508C27.9386 14.713 27.6045 14.8916 27.2408 14.964C26.8771 15.0363 26.5001 14.9992 26.1575 14.8573C25.8149 14.7154 25.522 14.475 25.316 14.1667C25.11 13.8584 25 13.4958 25 13.125C25 12.6277 25.1975 12.1508 25.5492 11.7992C25.9008 11.4475 26.3777 11.25 26.875 11.25ZM28.75 31.25H6.25V13.75H8.75V26.25C8.75 26.913 9.01339 27.5489 9.48223 28.0178C9.95107 28.4866 10.587 28.75 11.25 28.75H28.75V31.25ZM33.75 26.25H11.25V18.8578L15.9906 14.1156C16.1067 13.9994 16.2446 13.9072 16.3963 13.8443C16.5481 13.7814 16.7107 13.749 16.875 13.749C17.0393 13.749 17.2019 13.7814 17.3537 13.8443C17.5054 13.9072 17.6433 13.9994 17.7594 14.1156L25.5172 21.875L29.5312 17.8656C29.7656 17.6314 30.0835 17.4998 30.4148 17.4998C30.7462 17.4998 31.064 17.6314 31.2984 17.8656L33.75 20.3234V26.25Z" fill="#0F172A"/>
</svg>
