<svg width="55" height="55" viewBox="0 0 55 55" fill="none" xmlns="http://www.w3.org/2000/svg">
<g opacity="0.45">
<path d="M27.5 5.15625C23.0808 5.15625 18.7609 6.46669 15.0865 8.92185C11.4121 11.377 8.54822 14.8666 6.85708 18.9494C5.16593 23.0322 4.72345 27.5248 5.58559 31.859C6.44773 36.1933 8.57576 40.1746 11.7006 43.2994C14.8254 46.4242 18.8067 48.5523 23.141 49.4144C27.4752 50.2766 31.9678 49.8341 36.0506 48.1429C40.1334 46.4518 43.623 43.5879 46.0782 39.9135C48.5333 36.2391 49.8438 31.9192 49.8438 27.5C49.8364 21.5763 47.4799 15.8974 43.2913 11.7087C39.1026 7.52008 33.4237 5.16364 27.5 5.15625ZM18.0469 30.0781C17.537 30.0781 17.0385 29.9269 16.6146 29.6436C16.1906 29.3603 15.8601 28.9577 15.665 28.4866C15.4699 28.0155 15.4188 27.4971 15.5183 26.997C15.6178 26.4969 15.8633 26.0375 16.2239 25.677C16.5844 25.3164 17.0438 25.0709 17.5439 24.9714C18.044 24.8719 18.5624 24.923 19.0335 25.1181C19.5046 25.3133 19.9072 25.6437 20.1905 26.0677C20.4738 26.4916 20.625 26.9901 20.625 27.5C20.625 28.1838 20.3534 28.8395 19.8699 29.323C19.3864 29.8065 18.7306 30.0781 18.0469 30.0781ZM27.5 30.0781C26.9901 30.0781 26.4916 29.9269 26.0677 29.6436C25.6437 29.3603 25.3133 28.9577 25.1181 28.4866C24.923 28.0155 24.8719 27.4971 24.9714 26.997C25.0709 26.4969 25.3164 26.0375 25.677 25.677C26.0376 25.3164 26.4969 25.0709 26.997 24.9714C27.4971 24.8719 28.0155 24.923 28.4866 25.1181C28.9577 25.3133 29.3604 25.6437 29.6436 26.0677C29.9269 26.4916 30.0781 26.9901 30.0781 27.5C30.0781 28.1838 29.8065 28.8395 29.323 29.323C28.8395 29.8065 28.1838 30.0781 27.5 30.0781ZM36.9531 30.0781C36.4432 30.0781 35.9448 29.9269 35.5208 29.6436C35.0968 29.3603 34.7664 28.9577 34.5713 28.4866C34.3761 28.0155 34.3251 27.4971 34.4245 26.997C34.524 26.4969 34.7696 26.0375 35.1301 25.677C35.4907 25.3164 35.9501 25.0709 36.4502 24.9714C36.9503 24.8719 37.4686 24.923 37.9397 25.1181C38.4108 25.3133 38.8135 25.6437 39.0968 26.0677C39.3801 26.4916 39.5313 26.9901 39.5313 27.5C39.5313 28.1838 39.2596 28.8395 38.7761 29.323C38.2926 29.8065 37.6369 30.0781 36.9531 30.0781Z" fill="#6D6B67"/>
</g>
</svg>
