<svg width="10" height="13" viewBox="0 0 10 13" fill="none" xmlns="http://www.w3.org/2000/svg">
<path opacity="0.2" d="M9 7.15385C9 8.17391 8.57857 9.15219 7.82843 9.87349C7.07828 10.5948 6.06087 11 5 11C3.93913 11 2.92172 10.5948 2.17157 9.87349C1.42143 9.15219 1 8.17391 1 7.15385C1 3.69231 5 1 5 1C5 1 9 3.69231 9 7.15385Z" fill="#FF0000"/>
<path d="M7.61364 2.30681C6.91181 1.47889 6.1219 0.733363 5.25852 0.0840224C5.1821 0.0293354 5.09104 0 4.99773 0C4.90441 0 4.81336 0.0293354 4.73693 0.0840224C3.87514 0.733634 3.08677 1.47915 2.38636 2.30681C0.824432 4.13902 0 6.07047 0 7.89281C0 9.24732 0.526784 10.5464 1.46447 11.5041C2.40215 12.4619 3.67392 13 5 13C6.32608 13 7.59785 12.4619 8.53553 11.5041C9.47322 10.5464 10 9.24732 10 7.89281C10 6.07047 9.17557 4.13902 7.61364 2.30681ZM5 12.0714C3.91539 12.0702 2.87555 11.6295 2.10862 10.8462C1.34169 10.0628 0.910294 9.00067 0.909091 7.89281C0.909091 4.57139 4.0608 1.79899 5 1.04452C5.9392 1.79899 9.09091 4.57023 9.09091 7.89281C9.08971 9.00067 8.65831 10.0628 7.89138 10.8462C7.12445 11.6295 6.08461 12.0702 5 12.0714ZM8.17557 8.43486C8.0577 9.10733 7.74096 9.72677 7.26798 10.2098C6.795 10.6928 6.18849 11.0162 5.53011 11.1365C5.50512 11.1405 5.47986 11.1427 5.45455 11.1428C5.34053 11.1428 5.23068 11.099 5.1468 11.0201C5.06292 10.9412 5.01112 10.833 5.00168 10.717C4.99224 10.6009 5.02585 10.4855 5.09584 10.3935C5.16583 10.3016 5.26709 10.2399 5.37955 10.2206C6.32102 10.0587 7.11989 9.24273 7.27955 8.27933C7.29974 8.15788 7.36633 8.04961 7.46468 7.97832C7.56304 7.90703 7.68508 7.87856 7.80398 7.89919C7.92287 7.91982 8.02888 7.98784 8.09867 8.0883C8.16846 8.18876 8.19633 8.31342 8.17614 8.43486H8.17557Z" fill="#FF0000"/>
</svg>
