<svg width="15" height="15" viewBox="0 0 15 15" fill="none" xmlns="http://www.w3.org/2000/svg">
<g clip-path="url(#clip0_68_12)">
<path d="M14.0626 8C14.064 8.19226 14.0056 8.38022 13.8953 8.53773C13.7851 8.69524 13.6285 8.81449 13.4473 8.8789L9.73014 10.2307L8.37896 13.9473C8.31237 14.1267 8.19246 14.2814 8.03534 14.3907C7.87823 14.5 7.69143 14.5585 7.50006 14.5585C7.30868 14.5585 7.12189 14.5 6.96477 14.3907C6.80766 14.2814 6.68775 14.1267 6.62115 13.9473L5.26998 10.2301L1.55279 8.8789C1.37338 8.81231 1.21864 8.6924 1.10937 8.53528C1.0001 8.37817 0.941528 8.19137 0.941528 8C0.941528 7.80862 1.0001 7.62183 1.10937 7.46471C1.21864 7.3076 1.37338 7.18769 1.55279 7.12109L5.26998 5.76992L6.62115 2.05273C6.68775 1.87332 6.80766 1.71858 6.96477 1.60931C7.12189 1.50004 7.30868 1.44147 7.50006 1.44147C7.69143 1.44147 7.87823 1.50004 8.03534 1.60931C8.19246 1.71858 8.31237 1.87332 8.37896 2.05273L9.73072 5.76992L13.4473 7.12109C13.6285 7.1855 13.7851 7.30475 13.8953 7.46226C14.0056 7.61978 14.064 7.80773 14.0626 8Z" fill="#34C759"/>
</g>
<defs>
<clipPath id="clip0_68_12">
<rect width="15" height="15" fill="white"/>
</clipPath>
</defs>
</svg>
