<svg width="40" height="37" viewBox="0 0 40 37" fill="none" xmlns="http://www.w3.org/2000/svg">
<path d="M23.3317 6.72766C23.3317 5.39705 23.7225 4.09633 24.4546 2.98997C25.1868 1.88362 26.2275 1.02132 27.4451 0.512115C28.6626 0.00291497 30.0024 -0.130315 31.295 0.129273C32.5875 0.388861 33.7748 1.02961 34.7067 1.97049C35.6386 2.91137 36.2732 4.11012 36.5303 5.41516C36.7874 6.72019 36.6555 8.0729 36.1511 9.30222C35.6468 10.5315 34.7927 11.5823 33.697 12.3215C32.6012 13.0607 31.3129 13.4553 29.995 13.4553C28.2278 13.4553 26.5329 12.7465 25.2833 11.4848C24.0337 10.2231 23.3317 8.51194 23.3317 6.72766ZM37.2601 30.3144C30.6322 35.8626 26.0741 33.365 20.7954 30.47C15.2545 27.4341 8.97633 23.9925 0.611756 30.9935C0.441515 31.1339 0.300496 31.307 0.196827 31.5028C0.0931588 31.6985 0.0288919 31.913 0.00773298 32.134C-0.0134259 32.3549 0.00894105 32.5779 0.0735446 32.7901C0.138148 33.0023 0.243711 33.1994 0.384145 33.3702C0.52458 33.541 0.697107 33.682 0.891783 33.7852C1.08646 33.8883 1.29943 33.9515 1.51842 33.9712C1.73741 33.9908 1.95808 33.9665 2.16772 33.8996C2.37735 33.8327 2.57181 33.7246 2.73986 33.5815C9.3678 28.0333 13.9259 30.533 19.2046 33.4259C22.3509 35.1499 25.7326 37 29.6015 37C32.5458 37 35.7734 35.9257 39.3882 32.9003C39.7284 32.6154 39.9426 32.2057 39.9836 31.7614C40.0246 31.317 39.8891 30.8744 39.6069 30.5309C39.3247 30.1875 38.9189 29.9712 38.4788 29.9298C38.0387 29.8884 37.6003 30.0253 37.2601 30.3102V30.3144ZM0.611756 22.586C0.441515 22.7265 0.300496 22.8995 0.196827 23.0953C0.0931588 23.291 0.0288919 23.5056 0.00773298 23.7265C-0.0134259 23.9475 0.00894105 24.1704 0.0735446 24.3826C0.138148 24.5948 0.243711 24.792 0.384145 24.9627C0.52458 25.1335 0.697107 25.2746 0.891783 25.3777C1.08646 25.4808 1.29943 25.5441 1.51842 25.5637C1.73741 25.5833 1.95808 25.559 2.16772 25.4921C2.37735 25.4253 2.57181 25.3172 2.73986 25.174C9.3678 19.6279 13.9259 22.1256 19.2046 25.0185C22.3509 26.7424 25.7326 28.5925 29.6015 28.5925C32.5458 28.5925 35.7734 27.5182 39.3882 24.4929C39.5585 24.3524 39.6995 24.1793 39.8032 23.9836C39.9068 23.7878 39.9711 23.5733 39.9923 23.3524C40.0134 23.1314 39.9911 22.9084 39.9265 22.6963C39.8619 22.4841 39.7563 22.2869 39.6159 22.1161C39.4754 21.9453 39.3029 21.8043 39.1082 21.7012C38.9135 21.598 38.7006 21.5348 38.4816 21.5152C38.2626 21.4955 38.0419 21.5198 37.8323 21.5867C37.6226 21.6536 37.4282 21.7617 37.2601 21.9048C36.0558 22.949 34.7024 23.8038 33.2455 24.4403L22.0344 13.1252C20.0277 11.0901 17.6413 9.47687 15.0132 8.37875C12.3851 7.28064 9.56752 6.71946 6.72329 6.72766H1.67581C1.234 6.72766 0.81029 6.90486 0.497886 7.22028C0.185481 7.5357 0.0099734 7.9635 0.0099734 8.40957C0.0099734 8.85564 0.185481 9.28344 0.497886 9.59886C0.81029 9.91428 1.234 10.0915 1.67581 10.0915H6.72329C9.76807 10.0856 12.7659 10.8488 15.4439 12.3116L9.2741 18.5368C6.63583 18.787 3.77268 19.9391 0.611756 22.5839V22.586Z" fill="#0F172A"/>
</svg>
