<svg width="45" height="45" viewBox="0 0 45 45" fill="none" xmlns="http://www.w3.org/2000/svg">
<circle cx="22.5" cy="22.5" r="22.5" fill="#6D6B67" fill-opacity="0.4"/>
<path d="M24.125 23C24.125 23.2225 24.059 23.44 23.9354 23.625C23.8118 23.81 23.6361 23.9542 23.4305 24.0394C23.225 24.1245 22.9988 24.1468 22.7805 24.1034C22.5623 24.06 22.3618 23.9528 22.2045 23.7955C22.0472 23.6382 21.94 23.4377 21.8966 23.2195C21.8532 23.0012 21.8755 22.775 21.9606 22.5695C22.0458 22.3639 22.19 22.1882 22.375 22.0646C22.56 21.941 22.7775 21.875 23 21.875C23.2984 21.875 23.5845 21.9935 23.7955 22.2045C24.0065 22.4155 24.125 22.7016 24.125 23ZM29.375 21.875C29.1525 21.875 28.935 21.941 28.75 22.0646C28.565 22.1882 28.4208 22.3639 28.3356 22.5695C28.2505 22.775 28.2282 23.0012 28.2716 23.2195C28.315 23.4377 28.4222 23.6382 28.5795 23.7955C28.7368 23.9528 28.9373 24.06 29.1555 24.1034C29.3738 24.1468 29.6 24.1245 29.8055 24.0394C30.0111 23.9542 30.1868 23.81 30.3104 23.625C30.434 23.44 30.5 23.2225 30.5 23C30.5 22.7016 30.3815 22.4155 30.1705 22.2045C29.9595 21.9935 29.6734 21.875 29.375 21.875ZM16.625 21.875C16.4025 21.875 16.185 21.941 16 22.0646C15.815 22.1882 15.6708 22.3639 15.5856 22.5695C15.5005 22.775 15.4782 23.0012 15.5216 23.2195C15.565 23.4377 15.6722 23.6382 15.8295 23.7955C15.9868 23.9528 16.1873 24.06 16.4055 24.1034C16.6238 24.1468 16.85 24.1245 17.0555 24.0394C17.2611 23.9542 17.4368 23.81 17.5604 23.625C17.684 23.44 17.75 23.2225 17.75 23C17.75 22.7016 17.6315 22.4155 17.4205 22.2045C17.2095 21.9935 16.9234 21.875 16.625 21.875Z" fill="white"/>
</svg>
