<svg width="45" height="45" viewBox="0 0 45 45" fill="none" xmlns="http://www.w3.org/2000/svg">
<circle cx="22.5" cy="22.5" r="22.5" fill="#6D6B67" fill-opacity="0.4"/>
<path d="M31 22.5C31 22.6724 30.9298 22.8377 30.8047 22.9596C30.6797 23.0815 30.5102 23.15 30.3334 23.15H17.2763L22.1386 27.8898C22.2006 27.9502 22.2497 28.0219 22.2832 28.1008C22.3167 28.1797 22.334 28.2643 22.334 28.3497C22.334 28.4351 22.3167 28.5196 22.2832 28.5985C22.2497 28.6774 22.2006 28.7491 22.1386 28.8095C22.0767 28.8699 22.0032 28.9178 21.9222 28.9505C21.8413 28.9832 21.7546 29 21.667 29C21.5794 29 21.4926 28.9832 21.4117 28.9505C21.3308 28.9178 21.2573 28.8699 21.1953 28.8095L15.1955 22.9598C15.1335 22.8995 15.0844 22.8278 15.0508 22.7489C15.0173 22.67 15 22.5854 15 22.5C15 22.4146 15.0173 22.33 15.0508 22.2511C15.0844 22.1722 15.1335 22.1005 15.1955 22.0401L21.1953 16.1905C21.3204 16.0685 21.4901 16 21.667 16C21.8439 16 22.0135 16.0685 22.1386 16.1905C22.2637 16.3124 22.334 16.4778 22.334 16.6503C22.334 16.8228 22.2637 16.9882 22.1386 17.1102L17.2763 21.85H30.3334C30.5102 21.85 30.6797 21.9185 30.8047 22.0404C30.9298 22.1623 31 22.3276 31 22.5Z" fill="white"/>
</svg>
