<svg preserveAspectRatio="none" width="390" height="302" viewBox="0 0 390 427" fill="none" xmlns="http://www.w3.org/2000/svg">
<path opacity="0.35" d="M84.5879 0C89.0322 0 91.9687 0.889372 94.0928 2.14746C96.2079 3.40026 97.4795 5.00097 98.5928 6.2998C99.7217 7.61687 100.654 8.57808 102.123 8.86914C103.613 9.16418 105.769 8.78821 109.37 7.0498C111.297 6.11937 112.993 6.10034 114.53 6.79883C116.033 7.48198 117.324 8.82502 118.531 10.4873C119.742 12.1545 120.91 14.2045 122.142 16.3574C123.378 18.5199 124.685 20.7979 126.187 22.9648C129.19 27.2998 132.933 31.1255 138.338 32.6113C143.741 34.0965 150.918 33.2746 160.855 28.0576C170.895 22.7869 179.139 20.1383 186.671 19.1445C194.203 18.1507 200.995 18.8162 208.116 20.1338C222.363 22.7698 237.899 28 263.588 28C276.499 28 284.857 29.6596 290.586 32.1826C296.334 34.7141 299.4 38.1001 301.748 41.4639C302.332 42.3006 302.872 43.1359 303.395 43.9512C303.919 44.769 304.425 45.5647 304.948 46.334C305.994 47.8709 307.095 49.2795 308.492 50.4805C311.266 52.8642 315.293 54.5 322.588 54.5C334.343 54.5 342.145 52.7559 347.114 50.6035C352.108 48.4405 354.168 45.9009 354.607 44.3623L354.642 44.2422L354.729 44.1523C359.833 38.8804 368.037 32.0034 376.053 28.5537C380.06 26.8293 384.075 25.9367 387.656 26.585C391.27 27.2394 394.372 29.4507 396.535 33.7764C399.203 39.1124 400.523 46.0011 401.017 53.459C401.511 60.9237 401.181 68.9983 400.523 76.7295C399.866 84.4619 398.88 91.864 398.06 97.9805C397.236 104.119 396.588 108.918 396.588 111.5C396.588 111.827 396.408 112.08 396.211 112.257C396.014 112.433 395.75 112.58 395.452 112.708C394.852 112.966 393.99 113.199 392.904 113.413C390.723 113.843 387.525 114.222 383.428 114.554C375.228 115.218 363.363 115.702 348.686 116.036C319.326 116.703 278.68 116.769 233.522 116.463C143.206 115.85 34.8278 113.75 -37.4238 112L-38 111.986L-30.4053 66.418L-30.3955 66.3613L-30.374 66.3086C-28.3019 61.3013 -20.302 52.0635 -4.83398 54.5059C4.45122 55.9719 13.9265 50.9647 22.9277 44.7139C27.4229 41.5922 31.7409 38.205 35.8545 35.1904C39.9486 32.1901 43.833 29.5648 47.3906 28.04C50.8012 26.5784 53.7156 24.1338 56.4521 21.25C59.1985 18.3558 61.7154 15.0777 64.3945 11.9258C69.7127 5.6691 75.5944 0 84.5879 0Z" fill="currentColor"/>
<path opacity="0.25" fill-rule="evenodd" clip-rule="evenodd" d="M164.768 12.5082C174.823 7.22916 182.548 5.56715 189.295 6.0922C196.033 6.61668 201.733 9.31965 207.724 12.6381C219.696 19.2705 232.986 28.4506 258.588 28.4506C271.509 28.4506 280.876 30.2068 288.121 32.8559C295.369 35.5061 300.469 39.0409 304.856 42.56C313.634 49.5996 319.463 56.4506 334 56.4506C345.745 56.4506 352.254 54.2095 355.937 51.6049C359.599 49.0147 360.532 46.0203 361.02 44.3129L361.054 44.1928L361.141 44.1029C363.694 41.4657 366.239 38.5311 368.868 35.7524C371.466 33.0067 374.093 30.4718 376.685 28.7934C379.273 27.1172 381.91 26.2407 384.486 26.9682C387.058 27.6945 389.409 29.9748 391.535 34.227C394.203 39.563 395.523 46.4519 396.017 53.9096C396.511 61.3742 396.181 69.449 395.523 77.1801C394.866 84.9123 393.88 92.3147 393.06 98.4311C392.236 104.57 391.588 109.369 391.588 111.951C391.588 112.277 391.408 112.531 391.211 112.707C391.014 112.883 390.75 113.03 390.452 113.159C389.852 113.417 388.99 113.649 387.904 113.864C385.723 114.294 382.525 114.672 378.428 115.004C370.228 115.669 358.363 116.153 343.686 116.487C314.326 117.154 273.68 117.22 228.522 116.913C138.206 116.301 29.8278 114.201 -42.4238 112.451L-43 112.437L-35.4053 66.8686L-35.3955 66.8119L-35.374 66.7592C-34.7702 65.3002 -33.1145 64.5023 -31.0049 64.0834C-28.8593 63.6574 -26.0589 63.586 -22.8818 63.7387C-16.5219 64.0444 -8.5163 65.2573 -0.921875 66.4565C3.65204 67.1786 7.74157 65.6238 11.5547 62.724C15.378 59.8165 18.8858 55.5846 22.2676 51.0277C25.6288 46.4986 28.8904 41.6115 32.1523 37.5287C35.4161 33.4437 38.7683 30.0432 42.3906 28.4906C45.9577 26.9619 48.9413 26.5382 51.6885 26.7807C54.4253 27.0222 56.8956 27.923 59.4258 28.9897C64.491 31.1251 69.8707 33.9506 78.5 33.9506C87.2432 33.9506 89.8545 33.1939 92.0928 31.6625C94.3777 30.099 96.4939 27.519 103.782 24.0004C107.505 22.2033 110.723 21.9158 114.06 22.1547C115.717 22.2734 117.41 22.5227 119.196 22.7777C120.988 23.0336 122.884 23.2967 124.975 23.4516C133.302 24.0684 144.834 22.9731 164.768 12.5082Z" fill="currentColor"/>
<path d="M390 427H0V85H390V427Z" fill="currentColor"/>
</svg>